<?xml version="1.0" encoding="UTF-8" standalone="no"?>
<!DOCTYPE svg PUBLIC "-//W3C//DTD SVG 1.1//EN" "http://www.w3.org/Graphics/SVG/1.1/DTD/svg11.dtd">
<svg width="100%" height="100%" viewBox="0 0 1216 235" version="1.1" xmlns="http://www.w3.org/2000/svg" xmlns:xlink="http://www.w3.org/1999/xlink" xml:space="preserve" xmlns:serif="http://www.serif.com/" style="fill-rule:evenodd;clip-rule:evenodd;stroke-linejoin:round;stroke-miterlimit:2;">
    <g transform="matrix(4.16667,0,0,4.16667,0,0)">
        <path d="M13.952,43.515C13.952,29.267 25.63,16.711 39.875,17C57.999,17.369 59.211,31.4 59.209,31.313C60.742,32.129 62.009,29.378 61.709,27.865C59.825,18.381 42.996,11.423 34.718,11.423C20.469,11.423 8.918,22.974 8.918,37.223C8.918,44.778 12.166,51.574 17.342,56.293C15.189,52.525 13.952,48.166 13.952,43.515Z" style="fill:url(#_Linear1);"/>
    </g>
    <g transform="matrix(4.16667,0,0,4.16667,0,0)">
        <path d="M65.675,33.747L65.705,33.747C65.705,30.939 65.352,28.217 64.702,25.611C59.408,13.908 47.64,5.762 33.959,5.762C15.321,5.762 0.213,20.871 0.213,39.508C0.213,43.161 0.8,46.674 1.873,49.968C1.87,49.773 1.859,49.581 1.859,49.385C1.859,30.748 16.821,13.75 35.459,13.75C48.575,13.75 59.125,23.084 59.209,33.858C59.21,33.754 65.675,33.851 65.675,33.747Z" style="fill:url(#_Linear2);"/>
    </g>
    <g transform="matrix(4.16667,0,0,4.16667,0,0)">
        <path d="M61.138,47.474C63.77,44.147 65.675,39.715 65.675,33.747L65.705,33.747C65.705,33.28 65.689,32.818 65.67,32.357C65.648,31.903 65.617,31.451 65.581,31L65.584,31C64.185,13.649 49.671,0 31.959,0C17.112,0 4.514,9.592 0,22.914C6.081,14.049 16.281,8.231 27.843,8.231C46.481,8.231 63.542,24.334 59.625,42C59.22,43.829 61.433,45.685 61.138,47.474Z" style="fill:url(#_Linear3);"/>
    </g>
    <g transform="matrix(4.16667,0,0,4.16667,0,0)">
        <path d="M53.188,7.539C57.592,11.26 60.396,16.816 60.396,23.034C60.396,34.236 51.315,43.317 40.113,43.317C33.048,43.317 26.833,39.701 23.202,34.223C26.592,43.198 33.781,50.046 43.962,52.81C42.722,53.765 40.395,54.598 37.669,55.301C39.572,57.153 49.297,56.537 54.62,53.192C59.943,49.848 65.675,44.104 65.675,33.747L65.705,33.747C65.705,23.159 60.816,13.726 53.188,7.539Z" style="fill:url(#_Linear4);"/>
    </g>
    <g transform="matrix(4.16667,0,0,4.16667,0,0)">
        <path d="M52.463,6.951L52.448,6.958C52.548,7.035 52.654,7.107 52.753,7.186C52.655,7.109 52.562,7.026 52.463,6.951Z" style="fill:url(#_Linear5);"/>
    </g>
    <g transform="matrix(4.16667,0,0,4.16667,0,0)">
        <path d="M83.089,30.496L93.011,30.496C96.865,30.496 101.416,31.726 101.416,36.728C101.416,41.074 98.177,43.37 93.011,43.37L83.089,43.37L83.089,30.496ZM81.285,44.928L93.011,44.928C99.12,44.928 103.22,42.058 103.22,36.728C103.22,30.824 97.398,29.43 96.619,29.553L96.537,29.471C99.94,29.061 102.236,26.396 102.236,23.239C102.236,19.467 99.981,15.654 93.011,15.654L81.285,15.654L81.285,44.928ZM83.089,17.212L93.011,17.212C96.906,17.212 100.432,18.688 100.432,22.911C100.432,26.478 97.89,28.938 93.011,28.938L83.089,28.938L83.089,17.212Z" style="fill:rgb(61,169,224);fill-rule:nonzero;"/>
    </g>
    <g transform="matrix(4.16667,0,0,4.16667,0,0)">
        <rect x="107.197" y="15.654" width="1.558" height="29.274" style="fill:rgb(61,169,224);fill-rule:nonzero;"/>
    </g>
    <g transform="matrix(4.16667,0,0,4.16667,0,0)">
        <path d="M130.403,23.854L128.845,23.854L128.845,35.252C128.845,40.418 125.975,44.067 121.26,44.067C115.52,44.067 115.274,39.352 115.274,37.179L115.274,23.854L113.716,23.854L113.716,36.892C113.716,39.475 113.798,45.42 121.219,45.42C124.499,45.42 127.697,43.575 128.763,40.418L128.845,40.418L128.845,44.928L130.403,44.928L130.403,23.854Z" style="fill:rgb(61,169,224);fill-rule:nonzero;"/>
    </g>
    <g transform="matrix(4.16667,0,0,4.16667,0,0)">
        <path d="M152.215,34.596C152.502,28.569 149.55,23.362 142.949,23.362C136.594,23.362 133.56,28.979 133.642,34.76C133.56,40.582 136.799,45.42 142.949,45.42C147.951,45.42 151.231,42.714 152.051,37.794L150.493,37.794C149.755,41.689 146.926,44.067 142.949,44.067C137.742,44.067 135.118,39.557 135.2,34.596L152.215,34.596ZM135.2,33.243C135.528,29.061 138.275,24.715 142.949,24.715C147.787,24.715 150.575,28.815 150.657,33.243L135.2,33.243Z" style="fill:rgb(61,169,224);fill-rule:nonzero;"/>
    </g>
    <g transform="matrix(4.16667,0,0,4.16667,0,0)">
        <path d="M184.277,30.496L184.277,28.938L169.353,28.938L169.353,17.212L185.917,17.212L185.917,15.654L167.549,15.654L167.549,44.928L169.353,44.928L169.353,30.496L184.277,30.496Z" style="fill:rgb(61,169,224);fill-rule:nonzero;"/>
    </g>
    <g transform="matrix(4.16667,0,0,4.16667,0,0)">
        <path d="M204.941,34.596C205.228,28.569 202.276,23.362 195.675,23.362C189.32,23.362 186.286,28.979 186.368,34.76C186.286,40.582 189.525,45.42 195.675,45.42C200.677,45.42 203.957,42.714 204.777,37.794L203.219,37.794C202.481,41.689 199.652,44.067 195.675,44.067C190.468,44.067 187.844,39.557 187.926,34.596L204.941,34.596ZM187.926,33.243C188.254,29.061 191.001,24.715 195.675,24.715C200.513,24.715 203.301,28.815 203.383,33.243L187.926,33.243Z" style="fill:rgb(61,169,224);fill-rule:nonzero;"/>
    </g>
    <g transform="matrix(4.16667,0,0,4.16667,0,0)">
        <path d="M222.571,36.892C222.571,37.999 221.792,44.067 214.699,44.067C211.009,44.067 209.164,42.017 209.164,39.475C209.164,36.318 211.255,35.006 214.945,34.596C217.979,34.186 221.341,34.35 222.571,32.956L222.571,36.892ZM224.129,28.856C224.129,24.51 220.439,23.362 216.749,23.362C211.788,23.362 208.918,25.699 208.713,30.332L210.271,30.332C210.476,26.683 212.977,24.715 216.749,24.715C221.546,24.715 222.612,27.913 222.612,28.856C222.612,32.3 222.325,32.751 215.355,33.243C211.87,33.53 207.606,34.555 207.606,39.475C207.606,43.903 210.681,45.42 214.658,45.42C218.676,45.42 221.505,43.247 222.489,40.746L222.571,40.746L222.571,41.853C222.571,43.575 222.94,44.928 225.4,44.928C225.81,44.928 226.22,44.846 226.671,44.764L226.671,43.452C226.179,43.534 225.81,43.575 225.523,43.575C224.129,43.575 224.129,42.263 224.129,41.033L224.129,28.856Z" style="fill:rgb(61,169,224);fill-rule:nonzero;"/>
    </g>
    <g transform="matrix(4.16667,0,0,4.16667,0,0)">
        <path d="M236.429,23.854L231.837,23.854L231.837,17.294L230.279,17.294L230.279,23.854L226.384,23.854L226.384,25.207L230.279,25.207L230.279,39.926C230.115,44.682 233.19,45.133 236.388,44.928L236.388,43.575C233.436,43.657 231.837,43.329 231.837,39.926L231.837,25.207L236.429,25.207L236.429,23.854Z" style="fill:rgb(61,169,224);fill-rule:nonzero;"/>
    </g>
    <g transform="matrix(4.16667,0,0,4.16667,0,0)">
        <path d="M239.298,15.654L239.298,44.928L240.856,44.928L240.856,33.53C240.856,28.364 243.726,24.715 248.441,24.715C254.181,24.715 254.427,29.43 254.427,31.603L254.427,44.928L255.985,44.928L255.985,31.89C255.985,29.307 255.903,23.362 248.482,23.362C245.202,23.362 242.004,25.207 240.938,28.364L240.856,28.364L240.856,15.654L239.298,15.654Z" style="fill:rgb(61,169,224);fill-rule:nonzero;"/>
    </g>
    <g transform="matrix(4.16667,0,0,4.16667,0,0)">
        <path d="M278.207,34.596C278.494,28.569 275.542,23.362 268.941,23.362C262.586,23.362 259.552,28.979 259.634,34.76C259.552,40.582 262.791,45.42 268.941,45.42C273.943,45.42 277.223,42.714 278.043,37.794L276.485,37.794C275.747,41.689 272.918,44.067 268.941,44.067C263.734,44.067 261.11,39.557 261.192,34.596L278.207,34.596ZM261.192,33.243C261.52,29.061 264.267,24.715 268.941,24.715C273.779,24.715 276.567,28.815 276.649,33.243L261.192,33.243Z" style="fill:rgb(61,169,224);fill-rule:nonzero;"/>
    </g>
    <g transform="matrix(4.16667,0,0,4.16667,0,0)">
        <path d="M283.414,23.854L281.856,23.854L281.856,44.928L283.414,44.928L283.414,33.407C283.578,30.25 284.234,28.938 285.792,27.339C287.678,25.494 289.974,25.084 291.614,25.289L291.614,23.731C287.801,23.567 284.357,25.781 283.537,28.528L283.414,28.528L283.414,23.854Z" style="fill:rgb(61,169,224);fill-rule:nonzero;"/>
    </g>
    <defs>
        <linearGradient id="_Linear1" x1="0" y1="0" x2="1" y2="0" gradientUnits="userSpaceOnUse" gradientTransform="matrix(8.24734,-46.773,46.773,8.24734,30.6043,58.6306)"><stop offset="0" style="stop-color:rgb(55,192,240);stop-opacity:1"/><stop offset="0.3" style="stop-color:rgb(54,185,235);stop-opacity:1"/><stop offset="0.5" style="stop-color:rgb(38,151,212);stop-opacity:1"/><stop offset="0.6" style="stop-color:rgb(38,124,192);stop-opacity:1"/><stop offset="0.8" style="stop-color:rgb(43,53,145);stop-opacity:1"/><stop offset="1" style="stop-color:rgb(44,51,144);stop-opacity:1"/></linearGradient>
        <linearGradient id="_Linear2" x1="0" y1="0" x2="1" y2="0" gradientUnits="userSpaceOnUse" gradientTransform="matrix(45.1278,-45.1278,45.1278,45.1278,7.25166,55.3454)"><stop offset="0" style="stop-color:rgb(55,192,240);stop-opacity:1"/><stop offset="0.3" style="stop-color:rgb(55,192,240);stop-opacity:1"/><stop offset="0.4" style="stop-color:rgb(50,183,234);stop-opacity:1"/><stop offset="0.8" style="stop-color:rgb(35,63,153);stop-opacity:1"/><stop offset="0.9" style="stop-color:rgb(44,51,144);stop-opacity:1"/><stop offset="1" style="stop-color:rgb(44,51,144);stop-opacity:1"/></linearGradient>
        <linearGradient id="_Linear3" x1="0" y1="0" x2="1" y2="0" gradientUnits="userSpaceOnUse" gradientTransform="matrix(65.7054,0,0,65.7054,0,23.7366)"><stop offset="0" style="stop-color:rgb(55,192,240);stop-opacity:1"/><stop offset="0.2" style="stop-color:rgb(56,191,239);stop-opacity:1"/><stop offset="0.4" style="stop-color:rgb(42,166,222);stop-opacity:1"/><stop offset="0.8" style="stop-color:rgb(33,73,159);stop-opacity:1"/><stop offset="0.9" style="stop-color:rgb(44,51,144);stop-opacity:1"/><stop offset="1" style="stop-color:rgb(44,51,144);stop-opacity:1"/></linearGradient>
        <linearGradient id="_Linear4" x1="0" y1="0" x2="1" y2="0" gradientUnits="userSpaceOnUse" gradientTransform="matrix(2.19054e-09,48.7907,-48.7907,2.19054e-09,44.4538,7.53862)"><stop offset="0" style="stop-color:rgb(55,192,240);stop-opacity:1"/><stop offset="0.9" style="stop-color:rgb(33,64,154);stop-opacity:1"/><stop offset="1" style="stop-color:rgb(44,51,144);stop-opacity:1"/></linearGradient>
        <linearGradient id="_Linear5" x1="0" y1="0" x2="1" y2="0" gradientUnits="userSpaceOnUse" gradientTransform="matrix(0.175112,0.303303,-0.303303,0.175112,52.5132,6.91997)"><stop offset="0" style="stop-color:rgb(37,169,225);stop-opacity:1"/><stop offset="1" style="stop-color:rgb(45,56,141);stop-opacity:1"/></linearGradient>
    </defs>
</svg>
